<?xml version="1.0" standalone="no"?><!DOCTYPE svg PUBLIC "-//W3C//DTD SVG 1.1//EN" "http://www.w3.org/Graphics/SVG/1.1/DTD/svg11.dtd"><svg class="icon" width="200px" height="200.00px" viewBox="0 0 1024 1024" version="1.1" xmlns="http://www.w3.org/2000/svg"><path d="M414.47619 121.904762a73.142857 73.142857 0 0 1 73.142858 73.142857v292.571429H195.047619a73.142857 73.142857 0 0 1-73.142857-73.142858V195.047619a73.142857 73.142857 0 0 1 73.142857-73.142857h219.428571z m0 73.142857H195.047619v219.428571h219.428571V195.047619z m73.142858 341.333333v292.571429a73.142857 73.142857 0 0 1-73.142858 73.142857H195.047619a73.142857 73.142857 0 0 1-73.142857-73.142857v-219.428571a73.142857 73.142857 0 0 1 73.142857-73.142858h292.571429zM195.047619 609.52381v219.428571h219.428571v-219.428571H195.047619zM719.238095 121.904762a182.857143 182.857143 0 1 1 0 365.714286 182.857143 182.857143 0 0 1 0-365.714286z m0 73.142857a109.714286 109.714286 0 1 0 0 219.428571 109.714286 109.714286 0 0 0 0-219.428571zM828.952381 536.380952a73.142857 73.142857 0 0 1 73.142857 73.142858v219.428571a73.142857 73.142857 0 0 1-73.142857 73.142857h-219.428571a73.142857 73.142857 0 0 1-73.142858-73.142857V536.380952h292.571429z m-219.428571 292.571429h219.428571v-219.428571h-219.428571v219.428571z" /></svg>